<svg xmlns="http://www.w3.org/2000/svg" xmlns:xlink="http://www.w3.org/1999/xlink" version="1.1" style="enable-background:new 0 0 512.001 512.001;" xml:space="preserve" width="512.001" height="512.001"><rect id="backgroundrect" width="100%" height="100%" x="0" y="0" fill="none" stroke="none"/>

















<g class="currentLayer" style=""><title>Layer 1</title><g id="svg_1" class="selected" fill="#ffffff" fill-opacity="1">
	<g id="svg_2" fill="#ffffff" fill-opacity="1">
		<path d="M422.626,258.852h-0.852v-86.219V31.074v-8.603c0-12.39-10.08-22.471-22.471-22.471    c-12.391,0-22.472,10.081-22.472,22.472v12.232c-10.439,1.621-24.216,3.203-42.39,4.496c-39.29,2.798-88.618,3.352-131.955,1.478    c-4.214-0.167-7.743,3.073-7.924,7.268c-0.181,4.195,3.073,7.743,7.269,7.925c43.879,1.895,93.857,1.332,133.69-1.503    c39.464-2.81,60.021-7.036,71.047-10.784V168.74c-2.975,1.553-9.494,3.992-23.416,6.478c-0.111,0.019-0.222,0.035-0.331,0.059    c-6.771,1.198-15.262,2.407-25.933,3.529c-27.806,2.926-63.854,4.537-101.506,4.537c-37.652,0-73.701-1.611-101.506-4.537    c-10.67-1.122-19.161-2.33-25.932-3.528c-0.112-0.024-0.224-0.042-0.338-0.06c-13.92-2.485-20.437-4.924-23.412-6.477V43.588    c9.476,3.261,25.365,6.603,52.958,9.272c4.193,0.401,7.895-2.657,8.301-6.836c0.404-4.18-2.656-7.896-6.835-8.301    c-9.825-0.951-17.945-1.977-24.686-3.015V22.472C133.932,10.081,123.85,0,111.46,0C99.07,0,88.987,10.081,88.987,22.472v8.603    v141.558v86.229c-15.736,0.208-28.476,13.066-28.476,28.852c0,15.914,12.947,28.861,28.861,28.861h46.829l91.236,90.134    l-93.407,92.279c-2.212,2.184-2.87,5.494-1.666,8.359c1.189,2.823,3.952,4.654,7.007,4.654c0.045,0,0.089,0,0.133-0.001    l29.543-0.512c1.955-0.034,3.822-0.82,5.213-2.194l78.508-77.56l78.509,77.56c1.39,1.374,3.256,2.159,5.212,2.194L366.033,512    c0.045,0,0.088,0.001,0.133,0.001c3.055,0,5.819-1.831,7.007-4.654c1.204-2.865,0.546-6.174-1.665-8.359l-93.407-92.279    l91.236-90.134h53.292c15.913,0,28.861-12.947,28.861-28.861C451.489,271.8,438.539,258.852,422.626,258.852z M111.46,15.206    c4.006,0,7.266,3.259,7.266,7.266v9.403c-7.992-1.827-12.277-3.513-14.531-4.693v-4.71h-0.001    C104.194,18.466,107.452,15.206,111.46,15.206z M392.038,31.846v-9.374c0-4.006,3.259-7.266,7.266-7.266    c4.005,0,7.265,3.259,7.265,7.266v4.678h-0.001C404.327,28.306,400.038,30.002,392.038,31.846z M392.038,188.986    c6.064-1.267,10.795-2.566,14.53-3.851v73.717h-14.53V188.986z M104.194,185.135c3.735,1.284,8.466,2.584,14.531,3.851v69.866    h-14.531V185.135z M165.739,496.335l-7.519,0.13l80.036-79.07l3.694,3.65L165.739,496.335z M347.315,496.465l-7.518-0.13    l-181.91-179.712h7.386L347.315,496.465z M186.862,316.574h131.811l-65.906,65.109L186.862,316.574z M267.28,396.021l-3.693-3.649    l76.674-75.749h7.386L267.28,396.021z M422.626,301.368H89.372c-7.529,0-13.654-6.125-13.654-13.654s6.125-13.654,13.654-13.654    h7.218h29.738h45.528c4.2,0,7.603-3.404,7.603-7.603c0-4.199-3.403-7.603-7.603-7.603h-37.925v-67.209    c5.401,0.795,11.48,1.561,18.353,2.284c28.318,2.978,64.931,4.62,103.097,4.62c38.165,0,74.781-1.64,103.097-4.62    c6.873-0.723,12.952-1.489,18.353-2.284v67.209H215.45c-4.2,0-7.603,3.404-7.603,7.603c0,4.199,3.403,7.603,7.603,7.603h168.985    h29.737h8.455c7.529,0,13.654,6.125,13.654,13.654C436.281,295.242,430.156,301.368,422.626,301.368z" id="svg_3" fill="#ffffff" fill-opacity="1"/>
	</g>
</g><g id="svg_4" class="selected" fill="#ffffff" fill-opacity="1">
	<g id="svg_5" fill="#ffffff" fill-opacity="1">
		<path d="M313.43,103.712c-0.859-2.641-3.088-4.605-5.816-5.122l-25.421-4.813L269.76,71.088c-1.334-2.435-3.891-3.95-6.668-3.95    c-2.777,0-5.333,1.515-6.668,3.95l-12.433,22.69l-25.421,4.813c-2.728,0.517-4.958,2.48-5.816,5.121    c-0.859,2.641-0.208,5.54,1.696,7.562l17.736,18.836l-3.277,25.664c-0.353,2.754,0.825,5.482,3.073,7.115    c1.322,0.961,2.891,1.453,4.47,1.453c1.104,0,2.213-0.24,3.246-0.728l23.395-11.048l23.394,11.048    c2.513,1.187,5.47,0.908,7.716-0.724c2.247-1.632,3.425-4.359,3.073-7.115l-3.277-25.664l17.737-18.836    C313.638,109.253,314.289,106.353,313.43,103.712z M280.465,122.299c-1.558,1.654-2.295,3.92-2.006,6.176l1.975,15.461    l-14.093-6.655c-2.057-0.971-4.437-0.971-6.494,0l-14.094,6.656l1.975-15.462c0.288-2.255-0.447-4.52-2.006-6.176l-10.685-11.347    l15.315-2.899c2.233-0.423,4.161-1.823,5.253-3.817l7.491-13.67l7.491,13.67c1.092,1.994,3.02,3.394,5.253,3.817l15.315,2.899    L280.465,122.299z" id="svg_6" fill="#ffffff" fill-opacity="1"/>
	</g>
</g><g id="svg_7">
</g><g id="svg_8">
</g><g id="svg_9">
</g><g id="svg_10">
</g><g id="svg_11">
</g><g id="svg_12">
</g><g id="svg_13">
</g><g id="svg_14">
</g><g id="svg_15">
</g><g id="svg_16">
</g><g id="svg_17">
</g><g id="svg_18">
</g><g id="svg_19">
</g><g id="svg_20">
</g><g id="svg_21">
</g></g></svg>