<svg xmlns="http://www.w3.org/2000/svg" xmlns:xlink="http://www.w3.org/1999/xlink" version="1.1" style="enable-background:new 0 0 488.842 488.842;" xml:space="preserve" width="488.842" height="488.842"><rect id="backgroundrect" width="100%" height="100%" x="0" y="0" fill="none" stroke="none"/>
















<g class="currentLayer" style=""><title>Layer 1</title><g id="svg_1" class="selected" fill="#ffffff" fill-opacity="1">
	<path d="M0,0v488.842h488.842V0H0z M115.684,20.802h257.468v213.219H115.684V20.802z M94.882,468.041h-74.08V20.802h74.08V468.041z    M373.152,468.041H115.684V254.822h257.468V468.041z M468.041,468.041h-74.087V20.802h74.087V468.041z" id="svg_2" fill="#ffffff" fill-opacity="1"/>
	<rect x="421.62799072265625" y="67.03700256347656" width="21.711000442504883" height="20.802000045776367" id="svg_3" fill="#ffffff" fill-opacity="1"/>
	<rect x="421.62799072265625" y="150.5279998779297" width="21.711000442504883" height="20.802000045776367" id="svg_4" fill="#ffffff" fill-opacity="1"/>
	<rect x="421.62799072265625" y="234.02099609375" width="21.711000442504883" height="20.802000045776367" id="svg_5" fill="#ffffff" fill-opacity="1"/>
	<rect x="421.62799072265625" y="317.5220031738281" width="21.711000442504883" height="20.802000045776367" id="svg_6" fill="#ffffff" fill-opacity="1"/>
	<rect x="421.62799072265625" y="401.01300048828125" width="21.711000442504883" height="20.802000045776367" id="svg_7" fill="#ffffff" fill-opacity="1"/>
	<rect x="46.986000061035156" y="67.03700256347656" width="21.711000442504883" height="20.802000045776367" id="svg_8" fill="#ffffff" fill-opacity="1"/>
	<rect x="46.986000061035156" y="150.5279998779297" width="21.711000442504883" height="20.802000045776367" id="svg_9" fill="#ffffff" fill-opacity="1"/>
	<rect x="46.986000061035156" y="234.02099609375" width="21.711000442504883" height="20.802000045776367" id="svg_10" fill="#ffffff" fill-opacity="1"/>
	<rect x="46.986000061035156" y="317.5220031738281" width="21.711000442504883" height="20.802000045776367" id="svg_11" fill="#ffffff" fill-opacity="1"/>
	<rect x="46.986000061035156" y="401.01300048828125" width="21.711000442504883" height="20.802000045776367" id="svg_12" fill="#ffffff" fill-opacity="1"/>
</g><g id="svg_13">
</g><g id="svg_14">
</g><g id="svg_15">
</g><g id="svg_16">
</g><g id="svg_17">
</g><g id="svg_18">
</g><g id="svg_19">
</g><g id="svg_20">
</g><g id="svg_21">
</g><g id="svg_22">
</g><g id="svg_23">
</g><g id="svg_24">
</g><g id="svg_25">
</g><g id="svg_26">
</g><g id="svg_27">
</g></g></svg>